<?xml version="1.0" encoding="utf-8"?>
<!-- Generator: Adobe Illustrator 24.1.1, SVG Export Plug-In . SVG Version: 6.00 Build 0)  -->
<svg version="1.1" id="Capa_1" xmlns="http://www.w3.org/2000/svg" xmlns:xlink="http://www.w3.org/1999/xlink" x="0px" y="0px"
	 viewBox="0 0 446.9 446.9" style="enable-background:new 0 0 446.9 446.9;" xml:space="preserve">
<style type="text/css">
	.st0{fill:#FFFFFF;}
</style>
<g>
	<path class="st0" d="M0.7,105.9l59.7,186.4c1.9,5.9,7.4,10,13.7,10h216.2l12.9,35.8H74.1c-6.6,0-11.9,5.3-11.9,11.9
		c0,6.6,5.3,11.9,11.9,11.9h13.4c-6.8,7.6-11,17.6-11,28.7c0,23.7,19.3,43,43,43c23.7,0,43-19.3,43-43c0-11-4.2-21.1-11-28.7h93.8
		c-6.8,7.6-11,17.6-11,28.7c0,23.7,19.3,43,43,43s43-19.3,43-43c0-11-4.2-21.1-11-28.7h11c3.9,0,7.5-1.9,9.8-5.1
		c2.2-3.2,2.8-7.3,1.5-10.9l-15.7-43.7h6.9c6.9,0,12.9-4.9,14.1-11.7l41.6-226.3l59.5-23.4c7.4-2.9,11-11.2,8.1-18.6
		c-2.9-7.4-11.2-11-18.6-8.1l-66.9,26.3c-4.6,1.8-8,5.9-8.9,10.8l-40.9,222.4H84.5L33.7,115.1l258.4-11.1c7.9-0.3,14-7,13.7-14.9
		c-0.3-7.9-7-14.1-14.9-13.7L13.7,87.2c-4.5,0.2-8.6,2.5-11.1,6.1C0,97-0.7,101.7,0.7,105.9z M258.1,390.7
		c0-10.5,8.6-19.1,19.1-19.1s19.1,8.6,19.1,19.1s-8.6,19.1-19.1,19.1S258.1,401.2,258.1,390.7z M100.4,390.7
		c0-10.5,8.6-19.1,19.1-19.1s19.1,8.6,19.1,19.1s-8.6,19.1-19.1,19.1S100.4,401.2,100.4,390.7z"/>
</g>
</svg>
