<?xml version="1.0" encoding="utf-8"?>
<!-- Generator: Adobe Illustrator 24.1.1, SVG Export Plug-In . SVG Version: 6.00 Build 0)  -->
<svg version="1.1" xmlns="http://www.w3.org/2000/svg" xmlns:xlink="http://www.w3.org/1999/xlink" x="0px" y="0px"
	 viewBox="0 0 446.9 446.9" style="enable-background:new 0 0 446.9 446.9;" xml:space="preserve">
<style type="text/css">
	.st0{fill:#FFFFFF;}
</style>
<g id="Capa_1">
	<g>
		<path class="st0" d="M0.7,105.9l59.7,186.4c1.9,5.9,7.4,10,13.7,10h216.2l12.9,35.8H74.1c-6.6,0-11.9,5.3-11.9,11.9
			c0,6.6,5.3,11.9,11.9,11.9h13.4c-6.8,7.6-11,17.6-11,28.7c0,23.7,19.3,43,43,43c23.7,0,43-19.3,43-43c0-11-4.2-21.1-11-28.7h93.8
			c-6.8,7.6-11,17.6-11,28.7c0,23.7,19.3,43,43,43s43-19.3,43-43c0-11-4.2-21.1-11-28.7h11c3.9,0,7.5-1.9,9.8-5.1
			c2.2-3.2,2.8-7.3,1.5-10.9l-15.7-43.7h6.9c6.9,0,12.9-4.9,14.1-11.7l41.6-226.3l59.5-23.4c7.4-2.9,11-11.2,8.1-18.6
			c-2.9-7.4-11.2-11-18.6-8.1l-66.9,26.3c-4.6,1.8-8,5.9-8.9,10.8l-40.9,222.4H84.5L33.7,115.1l258.4-11.1c7.9-0.3,14-7,13.7-14.9
			c-0.3-7.9-7-14.1-14.9-13.7L13.7,87.2c-4.5,0.2-8.6,2.5-11.1,6.1C0,97-0.7,101.7,0.7,105.9z M258.1,390.7
			c0-10.5,8.6-19.1,19.1-19.1s19.1,8.6,19.1,19.1s-8.6,19.1-19.1,19.1S258.1,401.2,258.1,390.7z M100.4,390.7
			c0-10.5,8.6-19.1,19.1-19.1s19.1,8.6,19.1,19.1s-8.6,19.1-19.1,19.1S100.4,401.2,100.4,390.7z"/>
	</g>
</g>
<g id="Layer_2">
	<path class="st0" d="M128.2,78l-34.1,2.1C85.2,69.5,75.9,59.2,66.5,49L49.8,82.8l-32.2,2c11.1-22.4,22.1-44.8,33.2-67.2
		c3.9-7.8,16-9.6,21.9-3.2c16.1,17.3,31.8,35,47,53.1C122.6,71,125.4,74.5,128.2,78z"/>
	<path class="st0" d="M278.3,68.6l-27.8,1.7c-1.2-11.4-2.6-22.7-4.3-34l-99.8,38.6c-7.1,2.7-15.4-2.7-17.4-9.5
		c-2.3-7.7,2.4-14.7,9.5-17.4c33.5-13,67.1-25.9,100.7-38.9c3.4-1.3,7-0.7,10.1,0.9c1.3-1,2.8-1.8,4.7-2.4c6.6-1.9,16.2,2,17.4,9.5
		C274.1,34.3,276.4,51.4,278.3,68.6z"/>
</g>
</svg>
