<svg id="bd0ae5b7-9393-4901-af0b-0171148b09f4" data-name="Layer 1" xmlns="http://www.w3.org/2000/svg" viewBox="0 0 397.13 380.52"><defs><style>.f82e3f34-424b-4758-b2d1-ff3727c92c75{fill:#fff;}</style></defs><path class="f82e3f34-424b-4758-b2d1-ff3727c92c75" d="M1.43,243.59c1.26-2.91,2.12-6.09,3.85-8.69,4.52-6.8,11.24-9.42,19.3-9.38,24.27.15,48.54.09,72.81.27a7.47,7.47,0,0,0,6.4-3q54.7-63.59,109.53-127.07c.7-.82,1.36-1.67,2.35-2.88-1.34-.09-2.26-.22-3.18-.22-7.73,0-15.45,0-23.17-.16a6.79,6.79,0,0,0-5.9,2.68C167.33,113.87,151.1,132.5,135,151.24c-4.75,5.53-10.32,8.53-17.73,7-12.12-2.5-17.53-17.38-9.46-26.76,19.13-22.25,38.48-44.3,57.73-66.45a18,18,0,0,1,14.28-6.39q39.56,0,79.1-.07c7.12,0,13,2.72,18,7.77,15.76,15.91,31.65,31.69,47.45,47.56a21.65,21.65,0,0,1,2.22,3.15c1.54-1.44,2.43-2.22,3.27-3.06q19.33-19.27,38.66-38.55c7.4-7.37,17.84-7.7,24.86-.83s7,17.77-.36,25.15q-24.35,24.56-48.75,49.06a45.15,45.15,0,0,1-5.72,5c-8.29,5.89-17.36,5.17-24.59-2-9.48-9.4-18.86-18.9-28.25-28.39a28.13,28.13,0,0,1-2.4-3.38l-50.11,58c.88.94,1.66,1.81,2.48,2.63,13.73,13.73,27.37,27.55,41.23,41.15,6.83,6.7,8.77,14.8,6.83,23.65-8.58,39.15-17.45,78.25-26.22,117.36-2.06,9.17-7.33,15.36-16.63,17.78a4.51,4.51,0,0,0-1.09.64h-6.62a6.89,6.89,0,0,0-1.18-.53C219,377.35,212.42,367.05,215.3,354q9.88-45,20.21-89.88a5.32,5.32,0,0,0-1.8-5.73Q212,237.49,190.52,216.42c-2-1.92-3.56-4.2-5.49-6.51-1.48,1.6-2.24,2.38-3,3.19-13,14.52-26.28,28.86-39,43.65-6.74,7.85-15.06,11.3-25,11.38-31.2.24-62.4.3-93.6.4a23.26,23.26,0,0,1-15.33-5.16c-4.41-3.62-6.31-8.58-7.75-13.82Z" transform="translate(-1.43 -0.74)"/><path class="f82e3f34-424b-4758-b2d1-ff3727c92c75" d="M334.46,34.07a33.39,33.39,0,0,1-66.78.16C267.62,16,283,.71,301.2.74A33.66,33.66,0,0,1,334.46,34.07Z" transform="translate(-1.43 -0.74)"/></svg>