<?xml version="1.0" encoding="utf-8"?>
<!-- Generator: Adobe Illustrator 24.1.1, SVG Export Plug-In . SVG Version: 6.00 Build 0)  -->
<svg version="1.1" id="Layer_1" xmlns="http://www.w3.org/2000/svg" xmlns:xlink="http://www.w3.org/1999/xlink" x="0px" y="0px"
	 viewBox="0 0 400 381" style="enable-background:new 0 0 400 381;" xml:space="preserve">
<style type="text/css">
	.st0{fill:#EFCF1A;}
</style>
<g>
	<path class="st0" d="M1.4,243.6c1.3-2.9,2.1-6.1,3.8-8.7c4.5-6.8,11.2-9.4,19.3-9.4c24.3,0.1,48.5,0.1,72.8,0.3
		c2.8,0,4.6-0.9,6.4-3c36.5-42.4,73-84.7,109.5-127.1c0.7-0.8,1.4-1.7,2.4-2.9c-1.3-0.1-2.3-0.2-3.2-0.2c-7.7,0-15.4,0-23.2-0.2
		c-2.6-0.1-4.2,0.7-5.9,2.7c-16.1,18.7-32.3,37.4-48.4,56.1c-4.7,5.5-10.3,8.5-17.7,7c-12.1-2.5-17.5-17.4-9.5-26.8
		c19.1-22.2,38.5-44.3,57.7-66.4c3.8-4.4,8.5-6.4,14.3-6.4c26.4,0,52.7,0,79.1-0.1c7.1,0,13,2.7,18,7.8
		c15.8,15.9,31.6,31.7,47.5,47.6c0.8,0.8,1.4,2,2.2,3.2c1.5-1.4,2.4-2.2,3.3-3.1c12.9-12.8,25.8-25.7,38.7-38.6
		c7.4-7.4,17.8-7.7,24.9-0.8c7.1,6.9,7,17.8-0.4,25.1c-16.2,16.4-32.5,32.7-48.7,49.1c-1.8,1.8-3.7,3.5-5.7,5
		c-8.3,5.9-17.4,5.2-24.6-2c-9.5-9.4-18.9-18.9-28.2-28.4c-0.8-0.9-1.4-2-2.4-3.4c-17.1,19.7-33.5,38.7-50.1,58
		c0.9,0.9,1.7,1.8,2.5,2.6c13.7,13.7,27.4,27.5,41.2,41.1c6.8,6.7,8.8,14.8,6.8,23.7c-8.6,39.2-17.4,78.2-26.2,117.4
		c-2.1,9.2-7.3,15.4-16.6,17.8c-0.4,0.1-0.7,0.4-1.1,0.6c-2.2,0-4.4,0-6.6,0c-0.4-0.2-0.8-0.4-1.2-0.5
		c-12.9-3.4-19.5-13.7-16.7-26.8c6.6-30,13.4-59.9,20.2-89.9c0.6-2.5,0-4-1.8-5.7c-14.5-13.9-28.8-27.9-43.2-41.9
		c-2-1.9-3.6-4.2-5.5-6.5c-1.5,1.6-2.2,2.4-3,3.2c-13,14.5-26.3,28.9-39,43.7c-6.7,7.8-15.1,11.3-25,11.4
		c-31.2,0.2-62.4,0.3-93.6,0.4c-5.7,0-10.9-1.5-15.3-5.2c-4.4-3.6-6.3-8.6-7.7-13.8C1.4,247.6,1.4,245.6,1.4,243.6z"/>
	<path class="st0" d="M334.5,34.1c0,18.2-15,33.4-33.1,33.4c-18.3,0.1-33.6-15-33.7-33.3C267.6,16,283,0.7,301.2,0.7
		C319.3,0.8,334.4,15.9,334.5,34.1z"/>
</g>
</svg>
